#!OML:ASF E:\motion texture\Top Level 1\Subject 1\Session 1\male.ASF
:FULLY-SPECIFIED
:DEGREES
194
root -0.770067 17.5749 4.78676 499.984 -77.277 -489.666
lowerback 2.86201 -0.247416 7.64939
upperback 1.11096 -0.264337 4.66974
thorax -0.461028 -0.199531 0.543065
lowerneck -0.195982 -17.0893 -16.936
upperneck 5.77385 -26.0626 25.5526
head 7.60044 -12.6828 8.05951
rclavicle -2.11706e-014 2.46493e-014
rhumerus -17.233 56.6946 -47.6793
rradius 126.291
rwrist 19.1914
rhand -35.8663 -13.7669
rfingers 7.12502
rthumb -8.98077 -43.5558
lclavicle -2.11706e-014 2.46493e-014
lhumerus -53.2829 19.3195 65.0328
lradius 26.1956
lwrist -29.7319
lhand -11.3603 16.0818
lfingers 7.12502
lthumb 14.6734 45.5426
rfemur -4.39483 4.82965 31.2905
rtibia 23.5067
rfoot -19.7818 -6.69782
rtoes 0.917833
lfemur -37.4815 1.9218 -2.65961
ltibia 16.9403
lfoot -5.55439 6.81337
ltoes -16.7589
195
root -0.951483 17.5528 4.79425 500.45 -77.0861 -490.204
lowerback 2.82643 -0.337362 7.64405
upperback 1.10554 -0.381938 4.5326
thorax -0.453464 -0.25487 0.407732
lowerneck 0.13086 -17.3001 -17.1541
upperneck 5.3696 -26.4312 26.0624
head 7.61673 -12.9006 8.19978
rclavicle -8.44835e-015 -1.66979e-014
rhumerus -14.3777 58.523 -42.9458
rradius 126.81
rwrist 19.9634
rhand -35.9817 -13.322
rfingers 7.12502
rthumb -9.09215 -43.106
lclavicle -8.44835e-015 -1.66979e-014
lhumerus -53.0723 19.7019 64.4792
lradius 25.5695
lwrist -30.1934
lhand -11.2259 16.0126
lfingers 7.12502
lthumb 14.8029 45.4639
rfemur -3.90587 4.80108 31.2067
rtibia 23.9716
rfoot -19.9428 -6.44782
rtoes -0.413285
lfemur -37.3067 2.12679 -2.63204
ltibia 17.0714
lfoot -5.45704 6.28273
ltoes -17.101
196
root -1.13519 17.5323 4.80298 500.81 -76.9502 -490.656
lowerback 2.81096 -0.443392 7.63216
upperback 1.07725 -0.515818 4.37804
thorax -0.482473 -0.319173 0.258917
lowerneck 0.476446 -17.4986 -17.3609
upperneck 4.94742 -26.7838 26.5754
head 7.62308 -13.115 8.34382
rclavicle 2.59414e-014 -8.07066e-014
rhumerus -11.1569 59.5347 -37.7326
rradius 127.025
rwrist 19.8518
rhand -36.198 -13.1021
rfingers 7.12502
rthumb -9.30083 -42.8769
lclavicle 2.59414e-014 -8.07066e-014
lhumerus -52.8507 19.9697 63.972
lradius 25.0354
lwrist -30.6814
lhand -11.0024 15.8958
lfingers 7.12502
lthumb 15.0182 45.3312
rfemur -3.46642 4.75993 31.0841
rtibia 24.565
rfoot -20.0546 -6.22223
rtoes -1.89913
lfemur -37.2103 2.43619 -2.76968
ltibia 17.6263
lfoot -5.11258 5.59476
ltoes -17.3637
197
root -1.32079 17.5139 4.81291 501.045 -76.8796 -491
lowerback 2.82026 -0.570866 7.61015
upperback 1.02479 -0.672879 4.2088
thorax -0.552521 -0.396157 0.101987
lowerneck 0.813642 -17.687 -17.5597
upperneck 4.53913 -27.1263 27.0812
head 7.63414 -13.3253 8.48495
rclavicle -3.04141e-014 -8.54774e-015
rhumerus -7.85325 59.6875 -32.3717
rradius 126.821
rwrist 19.1442
rhand -36.5064 -13.0716
rfingers 7.12502
rthumb -9.59839 -42.833
lclavicle -3.04141e-014 -8.54774e-015
lhumerus -52.6353 20.1419 63.5019
lradius 24.6126
lwrist -31.205
lhand -10.7348 15.7161
lfingers 7.12502
lthumb 15.276 45.132
rfemur -3.09005 4.69998 30.9215
rtibia 25.3016
rfoot -20.1017 -6.0259
rtoes -3.53296
lfemur -37.187 2.80277 -3.05217
ltibia 18.5422
lfoot -4.47359 4.87747
ltoes -17.5302
198
root -1.50795 17.4981 4.82386 501.172 -76.8824 -491.251
lowerback 2.84345 -0.722013 7.57509
upperback 0.95687 -0.858217 4.01844
thorax -0.649033 -0.487793 -0.0677626
lowerneck 1.12722 -17.8653 -17.7432
upperneck 4.15324 -27.4614 27.5875
head 7.656 -13.5313 8.62246
rclavicle 1.799e-014 -5.76476e-015
rhumerus -4.76617 58.9941 -27.23
rradius 126.103
rwrist 18.1722
rhand -36.8104 -13.2388
rfingers 7.12502
rthumb -9.89172 -42.9864
lclavicle 1.799e-014 -5.76476e-015
lhumerus -52.4211 20.2296 63.0615
lradius 24.3152
lwrist -31.7377
lhand -10.4486 15.481
lfingers 7.12502
lthumb 15.5517 44.8757
rfemur -2.79221 4.62173 30.7131
rtibia 26.1995
rfoot -20.0639 -5.84941
rtoes -5.273
lfemur -37.2292 3.17852 -3.45513
ltibia 19.7402
lfoot -3.6023 4.21932
ltoes -17.4223
199
root -1.69626 17.4853 4.83557 501.22 -76.9627 -491.441
lowerback 2.86515 -0.896109 7.51607
upperback 0.889492 -1.07443 3.80439
thorax -0.747115 -0.59447 -0.246991
lowerneck 1.39776 -18.0356 -17.8984
upperneck 3.79131 -27.7895 28.0918
head 7.69012 -13.731 8.7519
rclavicle -1.54555e-014 4.87022e-015
rhumerus -2.1039 57.5117 -22.5853
rradius 124.774
rwrist 17.214
rhand -37.081 -13.4673
rfingers 7.12502
rthumb -10.1528 -43.2023
lclavicle -1.54555e-014 4.87022e-015
lhumerus -52.1885 20.2536 62.6514
lradius 24.1425
lwrist -32.2461
lhand -10.1861 15.2189
lfingers 7.12502
lthumb 15.8044 44.5938
rfemur -2.58399 4.52747 30.4515
rtibia 27.2744
rfoot -19.9195 -5.67999
rtoes -7.05081
lfemur -37.3118 3.51082 -3.94999
ltibia 21.1112
lfoot -2.6759 3.63403
ltoes -17.0682
200
root -1.88535 17.4766 4.84777 501.231 -77.1238 -491.619
lowerback 2.90124 -1.09452 7.41738
upperback 0.818811 -1.32198 3.56651
thorax -0.859605 -0.716826 -0.426525
lowerneck 1.64465 -18.188 -18.0371
upperneck 3.44472 -28.0987 28.6044
head 7.73105 -13.9212 8.88305
rclavicle 3.16316e-014 -1.83876e-015
rhumerus 0.0141121 55.3964 -18.6006
rradius 122.769
rwrist 16.5929
rhand -37.2262 -13.7243
rfingers 7.12502
rthumb -10.2929 -43.4525
lclavicle 3.16316e-014 -1.83876e-015
lhumerus -51.9549 20.2345 62.2525
lradius 24.0786
lwrist -32.6871
lhand -9.97522 14.9635
lfingers 7.12502
lthumb 16.0075 44.3222
rfemur -2.46793 4.41962 30.1266
rtibia 28.5327
rfoot -19.6458 -5.50095
rtoes -8.77495
lfemur -37.3923 3.75527 -4.51565
ltibia 22.5314
lfoot -1.86937 3.0907
ltoes -16.4179
201
root -2.07542 17.4721 4.85985 501.232 -77.3497 -491.813
lowerback 2.93328 -1.31062 7.27674
upperback 0.760467 -1.59587 3.30712
thorax -0.959503 -0.851505 -0.603249
lowerneck 1.86132 -18.3306 -18.1375
upperneck 3.11293 -28.3929 29.1
head 7.77219 -14.1028 9.00357
rclavicle -2.01953e-014 1.3418e-015
rhumerus 1.67251 52.8139 -15.2541
rradius 120.063
rwrist 16.3565
rhand -37.2106 -14.0564
rfingers 7.12502
rthumb -10.2778 -43.7853
lclavicle -2.01953e-014 1.3418e-015
lhumerus -51.698 20.1815 61.8775
lradius 24.1127
lwrist -32.9972
lhand -9.85367 14.7567
lfingers 7.12502
lthumb 16.1246 44.1059
rfemur -2.44561 4.30568 29.7475
rtibia 29.9738
rfoot -19.1983 -5.30429
rtoes -10.3729
lfemur -37.4206 3.90641 -5.12344
ltibia 23.8835
lfoot -1.25067 2.5609
ltoes -15.4316
202
root -2.2661 17.4723 4.87155 501.23 -77.624 -492.032
lowerback 2.9639 -1.53818 7.09641
upperback 0.7085 -1.88752 3.03409
thorax -1.05354 -0.994692 -0.770414
lowerneck 2.072 -18.4569 -18.2083
upperneck 2.78917 -28.6609 29.5699
head 7.80341 -14.2728 9.11748
rclavicle 8.62228e-015 -7.03698e-014
rhumerus 2.98299 49.9359 -12.47
rradius 116.649
rwrist 16.5232
rhand -37.0578 -14.3597
rfingers 7.12502
rthumb -10.1304 -44.0958
lclavicle 8.62228e-015 -7.03698e-014
lhumerus -51.4218 20.0938 61.5328
lradius 24.2264
lwrist -33.1252
lhand -9.84566 14.6289
lfingers 7.12502
lthumb 16.1323 43.9775
rfemur -2.52117 4.18246 29.325
rtibia 31.5912
rfoot -18.5493 -5.0811
rtoes -11.7521
lfemur -37.3628 3.97996 -5.75783
ltibia 25.099
lfoot -0.862591 2.01866
ltoes -14.1417
203
root -2.45835 17.4772 4.88299 501.235 -77.9114 -492.289
lowerback 2.99301 -1.76472 6.89493
upperback 0.663445 -2.18049 2.75947
thorax -1.13986 -1.13846 -0.926557
lowerneck 2.26926 -18.5719 -18.247
upperneck 2.49449 -28.9037 29.9756
head 7.82402 -14.429 9.21115
rclavicle 3.31225e-014 -6.12257e-014
rhumerus 4.08774 46.9065 -10.1279
rradius 112.547
rwrist 17.0386
rhand -36.8061 -14.7073
rfingers 7.12502
rthumb -9.88755 -44.4551
lclavicle 3.31225e-014 -6.12257e-014
lhumerus -51.1255 19.9991 61.2083
lradius 24.3808
lwrist -33.0796
lhand -9.967 14.5916
lfingers 7.12502
lthumb 16.0154 43.9496
rfemur -2.67776 4.05132 28.8804
rtibia 33.3541
rfoot -17.6583 -4.83073
rtoes -12.8635
lfemur -37.1674 4.00011 -6.39282
ltibia 26.141
lfoot -0.667464 1.44213
ltoes -12.6057
204
root -2.6526 17.4862 4.89475 501.237 -78.18 -492.57
lowerback 3.02009 -1.97956 6.69786
upperback 0.616731 -2.45959 2.49568
thorax -1.22619 -1.27586 -1.07366
lowerneck 2.4388 -18.6852 -18.2537
upperneck 2.27156 -29.1321 30.266
head 7.84127 -14.5719 9.26387
rclavicle 6.65929e-015 -3.65764e-014
rhumerus 5.12763 43.8604 -8.1078
rradius 107.782
rwrist 17.8468
rhand -36.477 -15.1851
rfingers 7.12502
rthumb -9.5701 -44.9478
lclavicle 6.65929e-015 -3.65764e-014
lhumerus -50.8091 19.9009 60.9109
lradius 24.5493
lwrist -32.8649
lhand -10.2138 14.6455
lfingers 7.12502
lthumb 15.7778 44.0225
rfemur -2.90874 3.90651 28.4339
rtibia 35.2275
rfoot -16.4845 -4.54773
rtoes -13.541
lfemur -36.8225 4.00797 -7.0106
ltibia 27.0242
lfoot -0.561391 0.855262
ltoes -10.7845
205
root -2.84886 17.4991 4.90761 501.216 -78.3995 -492.854
lowerback 3.03599 -2.16917 6.5268
upperback 0.572344 -2.70754 2.25997
thorax -1.30203 -1.39824 -1.20744
lowerneck 2.56351 -18.8082 -18.239
upperneck 2.1434 -29.3577 30.4114
head 7.86275 -14.7026 9.26229
rclavicle 6.86801e-014 8.34896e-015
rhumerus 6.19122 40.8449 -6.31962
rradius 102.406
rwrist 18.7964
rhand -36.1672 -15.8232
rfingers 7.12502
rthumb -9.27118 -45.5993
lclavicle 6.86801e-014 8.34896e-015
lhumerus -50.4488 19.834 60.6466
lradius 24.6887
lwrist -32.5425
lhand -10.5658 14.7991
lfingers 7.12502
lthumb 15.4387 44.2025
rfemur -3.20199 3.75244 28.0079
rtibia 37.1724
rfoot -14.9923 -4.25489
rtoes -13.7495
lfemur -36.3094 4.00819 -7.57995
ltibia 27.7555
lfoot -0.482137 0.343
ltoes -8.77305
206
root -3.04699 17.5153 4.92237 501.201 -78.5624 -493.167
lowerback 3.04209 -2.32747 6.38941
upperback 0.525751 -2.9152 2.05651
thorax -1.37226 -1.50125 -1.32847
lowerneck 2.64156 -18.9454 -18.2129
upperneck 2.1144 -29.5869 30.4094
head 7.89204 -14.8227 9.2051
rclavicle -2.24627e-014 7.55382e-015
rhumerus 7.32213 37.8914 -4.72539
rradius 96.4823
rwrist 19.7782
rhand -35.8692 -16.6209
rfingers 7.12502
rthumb -8.98359 -46.4096
lclavicle -2.24627e-014 7.55382e-015
lhumerus -50.0293 19.8171 60.4129
lradius 24.7676
lwrist -32.1659
lhand -10.9858 15.0501
lfingers 7.12502
lthumb 15.0342 44.4842
rfemur -3.54664 3.58816 27.5988
rtibia 39.1454
rfoot -13.1504 -3.98077
rtoes -13.36
lfemur -35.6309 3.99276 -8.094
ltibia 28.3453
lfoot -0.448661 -0.0506498
ltoes -6.56707
207
root -3.24604 17.5343 4.93943 501.238 -78.6751 -493.546
lowerback 3.03653 -2.45048 6.27514
upperback 0.475143 -3.07725 1.8871
thorax -1.43655 -1.58209 -1.42966
lowerneck 2.68664 -19.0976 -18.1834
upperneck 2.15471 -29.8183 30.2829
head 7.92251 -14.9344 9.10294
rclavicle 5.79954e-014 -1.03368e-014
rhumerus 8.53602 34.975 -3.31652
rradius 90.1089
rwrist 20.5948
rhand -35.579 -17.6041
rfingers 7.12502
rthumb -8.70355 -47.4047
lclavicle 5.79954e-014 -1.03368e-014
lhumerus -49.5283 19.8586 60.2177
lradius 24.7695
lwrist -31.7896
lhand -11.4278 15.3913
lfingers 7.12502
lthumb 14.6083 44.8568
rfemur -3.94338 3.41519 27.195
rtibia 41.1187
rfoot -10.9472 -3.74709
rtoes -12.3447
lfemur -34.8097 3.9519 -8.55703
ltibia 28.7967
lfoot -0.532282 -0.331601
ltoes -4.42878
